<?xml version="1.0" encoding="UTF-8" standalone="no"?>
<!DOCTYPE svg PUBLIC "-//W3C//DTD SVG 1.0//EN" "http://www.w3.org/TR/2001/PR-SVG-20010719/DTD/svg10.dtd">
<svg width="33cm" height="35cm" viewBox="238 -141 643 683" xmlns="http://www.w3.org/2000/svg" xmlns:xlink="http://www.w3.org/1999/xlink">
  <g>
    <rect style="fill: #d13a58" x="240" y="60" width="640" height="80"/>
    <rect style="fill: none; fill-opacity:0; stroke-width: 2; stroke: #d13a58" x="240" y="60" width="640" height="80"/>
    <text font-size="12.7998" style="fill: #ffffff;text-anchor:start;font-family:sans-serif;font-style:normal;font-weight:normal" x="249" y="103.9">
      <tspan x="249" y="103.9">View data laag</tspan>
    </text>
  </g>
  <g>
    <rect style="fill: #d1586f" x="240" y="160" width="640" height="80"/>
    <rect style="fill: none; fill-opacity:0; stroke-width: 2; stroke: #d1586f" x="240" y="160" width="640" height="80"/>
    <text font-size="12.7998" style="fill: #ffffff;text-anchor:start;font-family:sans-serif;font-style:normal;font-weight:normal" x="249" y="203.9">
      <tspan x="249" y="203.9">Controller laag</tspan>
    </text>
  </g>
  <g>
    <rect style="fill: #d1929f" x="240" y="360" width="640" height="80"/>
    <rect style="fill: none; fill-opacity:0; stroke-width: 2; stroke: #d1929f" x="240" y="360" width="640" height="80"/>
    <text font-size="12.7998" style="fill: #000000;text-anchor:start;font-family:sans-serif;font-style:normal;font-weight:normal" x="249" y="403.9">
      <tspan x="249" y="403.9">Data access laag</tspan>
    </text>
  </g>
  <g>
    <rect style="fill: #d17587" x="240" y="260" width="640" height="80"/>
    <rect style="fill: none; fill-opacity:0; stroke-width: 2; stroke: #d17587" x="240" y="260" width="640" height="80"/>
    <text font-size="12.7998" style="fill: #ffffff;text-anchor:start;font-family:sans-serif;font-style:normal;font-weight:normal" x="249" y="303.9">
      <tspan x="249" y="303.9">Service laag</tspan>
    </text>
  </g>
  <g>
    <rect style="fill: #d1b0b6" x="240" y="460" width="640" height="80"/>
    <rect style="fill: none; fill-opacity:0; stroke-width: 2; stroke: #d1b0b6" x="240" y="460" width="640" height="80"/>
    <text font-size="12.7998" style="fill: #000000;text-anchor:start;font-family:sans-serif;font-style:normal;font-weight:normal" x="249" y="503.9">
      <tspan x="249" y="503.9">Data laag</tspan>
    </text>
  </g>
  <g>
    <rect style="fill: #d11d40" x="240" y="-40" width="640" height="80"/>
    <rect style="fill: none; fill-opacity:0; stroke-width: 2; stroke: #d11d40" x="240" y="-40" width="640" height="80"/>
    <text font-size="12.7998" style="fill: #ffffff;text-anchor:start;font-family:sans-serif;font-style:normal;font-weight:normal" x="249" y="3.9">
      <tspan x="249" y="3.9">Presentatie laag</tspan>
    </text>
  </g>
  <g>
    <rect style="fill: #ffffff" x="400" y="180" width="460" height="38"/>
    <rect style="fill: none; fill-opacity:0; stroke-width: 2; stroke: #ffffff" x="400" y="180" width="460" height="38"/>
    <text font-size="12.7998" style="fill: #000000;text-anchor:middle;font-family:sans-serif;font-style:normal;font-weight:normal" x="630" y="202.9">
      <tspan x="630" y="202.9">Controller</tspan>
    </text>
  </g>
  <g>
    <rect style="fill: #ffffff" x="400" y="280" width="220" height="38"/>
    <rect style="fill: none; fill-opacity:0; stroke-width: 2; stroke: #ffffff" x="400" y="280" width="220" height="38"/>
    <text font-size="12.7998" style="fill: #000000;text-anchor:middle;font-family:sans-serif;font-style:normal;font-weight:normal" x="510" y="302.9">
      <tspan x="510" y="302.9">Service</tspan>
    </text>
  </g>
  <g>
    <rect style="fill: #ffffff" x="400" y="381" width="100" height="40"/>
    <rect style="fill: none; fill-opacity:0; stroke-width: 2; stroke: #ffffff" x="400" y="381" width="100" height="40"/>
    <text font-size="12.7998" style="fill: #000000;text-anchor:middle;font-family:sans-serif;font-style:normal;font-weight:normal" x="450" y="404.9">
      <tspan x="450" y="404.9">Repository</tspan>
    </text>
  </g>
  <g>
    <rect style="fill: #ffffff" x="400" y="480" width="100" height="40"/>
    <rect style="fill: none; fill-opacity:0; stroke-width: 2; stroke: #ffffff" x="400" y="480" width="100" height="40"/>
    <text font-size="12.7998" style="fill: #000000;text-anchor:middle;font-family:sans-serif;font-style:normal;font-weight:normal" x="450" y="503.9">
      <tspan x="450" y="503.9">Model</tspan>
    </text>
  </g>
  <g>
    <rect style="fill: #ffffff" x="640" y="280" width="220" height="38"/>
    <rect style="fill: none; fill-opacity:0; stroke-width: 2; stroke: #ffffff" x="640" y="280" width="220" height="38"/>
    <text font-size="12.7998" style="fill: #000000;text-anchor:middle;font-family:sans-serif;font-style:normal;font-weight:normal" x="750" y="302.9">
      <tspan x="750" y="302.9">Service</tspan>
    </text>
  </g>
  <g>
    <rect style="fill: #ffffff" x="520" y="380" width="100" height="40"/>
    <rect style="fill: none; fill-opacity:0; stroke-width: 2; stroke: #ffffff" x="520" y="380" width="100" height="40"/>
    <text font-size="12.7998" style="fill: #000000;text-anchor:middle;font-family:sans-serif;font-style:normal;font-weight:normal" x="570" y="403.9">
      <tspan x="570" y="403.9">Repository</tspan>
    </text>
  </g>
  <g>
    <line style="fill: none; fill-opacity:0; stroke-width: 2; stroke: #000000" x1="515" y1="218" x2="510.783" y2="270.295"/>
    <polygon style="fill: #000000" points="510.18,277.771 506,267.402 510.783,270.295 515.967,268.205 "/>
    <polygon style="fill: none; fill-opacity:0; stroke-width: 2; stroke: #000000" points="510.18,277.771 506,267.402 510.783,270.295 515.967,268.205 "/>
  </g>
  <g>
    <line style="fill: none; fill-opacity:0; stroke-width: 2; stroke: #000000" x1="745" y1="218" x2="749.217" y2="270.295"/>
    <polygon style="fill: #000000" points="749.82,277.771 744.033,268.205 749.217,270.295 754,267.402 "/>
    <polygon style="fill: none; fill-opacity:0; stroke-width: 2; stroke: #000000" points="749.82,277.771 744.033,268.205 749.217,270.295 754,267.402 "/>
  </g>
  <g>
    <line style="fill: none; fill-opacity:0; stroke-width: 2; stroke: #000000" x1="455" y1="318" x2="450.77" y2="371.294"/>
    <polygon style="fill: #000000" points="450.177,378.771 445.984,368.407 450.77,371.294 455.952,369.198 "/>
    <polygon style="fill: none; fill-opacity:0; stroke-width: 2; stroke: #000000" points="450.177,378.771 445.984,368.407 450.77,371.294 455.952,369.198 "/>
  </g>
  <g>
    <line style="fill: none; fill-opacity:0; stroke-width: 2; stroke: #000000" x1="510" y1="318" x2="563.229" y2="373.004"/>
    <polygon style="fill: #000000" points="568.445,378.393 557.898,374.684 563.229,373.004 565.084,367.73 "/>
    <polygon style="fill: none; fill-opacity:0; stroke-width: 2; stroke: #000000" points="568.445,378.393 557.898,374.684 563.229,373.004 565.084,367.73 "/>
  </g>
  <g>
    <rect style="fill: #ffffff" x="640" y="380" width="100" height="40"/>
    <rect style="fill: none; fill-opacity:0; stroke-width: 2; stroke: #ffffff" x="640" y="380" width="100" height="40"/>
    <text font-size="12.7998" style="fill: #000000;text-anchor:middle;font-family:sans-serif;font-style:normal;font-weight:normal" x="690" y="403.9">
      <tspan x="690" y="403.9">Repository</tspan>
    </text>
  </g>
  <g>
    <rect style="fill: #ffffff" x="760" y="379" width="100" height="40"/>
    <rect style="fill: none; fill-opacity:0; stroke-width: 2; stroke: #ffffff" x="760" y="379" width="100" height="40"/>
    <text font-size="12.7998" style="fill: #000000;text-anchor:middle;font-family:sans-serif;font-style:normal;font-weight:normal" x="810" y="402.9">
      <tspan x="810" y="402.9">Repository</tspan>
    </text>
  </g>
  <g>
    <line style="fill: none; fill-opacity:0; stroke-width: 2; stroke: #000000" x1="565" y1="318" x2="649.862" y2="373.669"/>
    <polygon style="fill: #000000" points="656.133,377.783 645.029,376.479 649.862,373.669 650.514,368.117 "/>
    <polygon style="fill: none; fill-opacity:0; stroke-width: 2; stroke: #000000" points="656.133,377.783 645.029,376.479 649.862,373.669 650.514,368.117 "/>
  </g>
  <g>
    <line style="fill: none; fill-opacity:0; stroke-width: 2; stroke: #000000" x1="695" y1="318" x2="690.783" y2="370.295"/>
    <polygon style="fill: #000000" points="690.18,377.771 686,367.402 690.783,370.295 695.967,368.205 "/>
    <polygon style="fill: none; fill-opacity:0; stroke-width: 2; stroke: #000000" points="690.18,377.771 686,367.402 690.783,370.295 695.967,368.205 "/>
  </g>
  <g>
    <line style="fill: none; fill-opacity:0; stroke-width: 2; stroke: #000000" x1="805" y1="318" x2="809.205" y2="369.296"/>
    <polygon style="fill: #000000" points="809.817,376.771 804.017,367.213 809.205,369.296 813.984,366.396 "/>
    <polygon style="fill: none; fill-opacity:0; stroke-width: 2; stroke: #000000" points="809.817,376.771 804.017,367.213 809.205,369.296 813.984,366.396 "/>
  </g>
  <g>
    <rect style="fill: #ffffff" x="760" y="480" width="100" height="40"/>
    <rect style="fill: none; fill-opacity:0; stroke-width: 2; stroke: #ffffff" x="760" y="480" width="100" height="40"/>
    <text font-size="12.7998" style="fill: #000000;text-anchor:middle;font-family:sans-serif;font-style:normal;font-weight:normal" x="810" y="503.9">
      <tspan x="810" y="503.9">Model</tspan>
    </text>
  </g>
  <g>
    <rect style="fill: #ffffff" x="520" y="480" width="100" height="40"/>
    <rect style="fill: none; fill-opacity:0; stroke-width: 2; stroke: #ffffff" x="520" y="480" width="100" height="40"/>
    <text font-size="12.7998" style="fill: #000000;text-anchor:middle;font-family:sans-serif;font-style:normal;font-weight:normal" x="570" y="503.9">
      <tspan x="570" y="503.9">Model</tspan>
    </text>
  </g>
  <g>
    <rect style="fill: #ffffff" x="640" y="480" width="100" height="40"/>
    <rect style="fill: none; fill-opacity:0; stroke-width: 2; stroke: #ffffff" x="640" y="480" width="100" height="40"/>
    <text font-size="12.7998" style="fill: #000000;text-anchor:middle;font-family:sans-serif;font-style:normal;font-weight:normal" x="690" y="503.9">
      <tspan x="690" y="503.9">Model</tspan>
    </text>
  </g>
  <g>
    <line style="fill: none; fill-opacity:0; stroke-width: 2; stroke: #000000" x1="450" y1="421" x2="450" y2="470.264"/>
    <polygon style="fill: #000000" points="450,477.764 445,467.764 450,470.264 455,467.764 "/>
    <polygon style="fill: none; fill-opacity:0; stroke-width: 2; stroke: #000000" points="450,477.764 445,467.764 450,470.264 455,467.764 "/>
  </g>
  <g>
    <line style="fill: none; fill-opacity:0; stroke-width: 2; stroke: #000000" x1="570" y1="420" x2="570" y2="470.264"/>
    <polygon style="fill: #000000" points="570,477.764 565,467.764 570,470.264 575,467.764 "/>
    <polygon style="fill: none; fill-opacity:0; stroke-width: 2; stroke: #000000" points="570,477.764 565,467.764 570,470.264 575,467.764 "/>
  </g>
  <g>
    <line style="fill: none; fill-opacity:0; stroke-width: 2; stroke: #000000" x1="690" y1="420" x2="690" y2="470.264"/>
    <polygon style="fill: #000000" points="690,477.764 685,467.764 690,470.264 695,467.764 "/>
    <polygon style="fill: none; fill-opacity:0; stroke-width: 2; stroke: #000000" points="690,477.764 685,467.764 690,470.264 695,467.764 "/>
  </g>
  <g>
    <line style="fill: none; fill-opacity:0; stroke-width: 2; stroke: #000000" x1="810" y1="419" x2="810" y2="470.264"/>
    <polygon style="fill: #000000" points="810,477.764 805,467.764 810,470.264 815,467.764 "/>
    <polygon style="fill: none; fill-opacity:0; stroke-width: 2; stroke: #000000" points="810,477.764 805,467.764 810,470.264 815,467.764 "/>
  </g>
  <g>
    <line style="fill: none; fill-opacity:0; stroke-width: 2; stroke: #000000" x1="451.265" y1="379.997" x2="454.415" y2="327.718"/>
    <polygon style="fill: #000000" points="454.866,320.232 459.255,330.515 454.415,327.718 449.273,329.913 "/>
    <polygon style="fill: none; fill-opacity:0; stroke-width: 2; stroke: #000000" points="454.866,320.232 459.255,330.515 454.415,327.718 449.273,329.913 "/>
  </g>
  <g>
    <line style="fill: none; fill-opacity:0; stroke-width: 2; stroke: #000000" x1="510" y1="280" x2="514.217" y2="227.705"/>
    <polygon style="fill: #000000" points="514.82,220.229 519,230.598 514.217,227.705 509.033,229.795 "/>
    <polygon style="fill: none; fill-opacity:0; stroke-width: 2; stroke: #000000" points="514.82,220.229 519,230.598 514.217,227.705 509.033,229.795 "/>
  </g>
  <g>
    <rect style="fill: #ffffff" x="640" y="-20" width="220" height="38"/>
    <rect style="fill: none; fill-opacity:0; stroke-width: 2; stroke: #ffffff" x="640" y="-20" width="220" height="38"/>
    <text font-size="12.7998" style="fill: #000000;text-anchor:middle;font-family:sans-serif;font-style:normal;font-weight:normal" x="750" y="2.9">
      <tspan x="750" y="2.9">View</tspan>
    </text>
  </g>
  <g>
    <line style="fill: none; fill-opacity:0; stroke-width: 2; stroke: #000000" x1="750" y1="-20" x2="652.493" y2="-91.8937"/>
    <polygon style="fill: #000000" points="646.457,-96.3446 657.473,-94.4345 652.493,-91.8937 651.538,-86.3857 "/>
    <polygon style="fill: none; fill-opacity:0; stroke-width: 2; stroke: #000000" points="646.457,-96.3446 657.473,-94.4345 652.493,-91.8937 651.538,-86.3857 "/>
  </g>
  <g>
    <ellipse style="fill: #ffffff" cx="609.591" cy="-115.205" rx="49.5908" ry="24.7954"/>
    <ellipse style="fill: none; fill-opacity:0; stroke-width: 2; stroke: #000000" cx="609.591" cy="-115.205" rx="49.5908" ry="24.7954"/>
    <text font-size="12.7998" style="fill: #000000;text-anchor:middle;font-family:sans-serif;font-style:normal;font-weight:normal" x="609.591" y="-111.305">
      <tspan x="609.591" y="-111.305">Aanvraag</tspan>
    </text>
  </g>
  <g>
    <line style="fill: none; fill-opacity:0; stroke-width: 2; stroke: #000000" x1="574.525" y1="-97.6716" x2="517.041" y2="170.48"/>
    <polygon style="fill: #000000" points="515.469,177.814 512.676,166.988 517.041,170.48 522.454,169.084 "/>
    <polygon style="fill: none; fill-opacity:0; stroke-width: 2; stroke: #000000" points="515.469,177.814 512.676,166.988 517.041,170.48 522.454,169.084 "/>
  </g>
  <g>
    <rect style="fill: #ffffff" x="640" y="80" width="220" height="38"/>
    <rect style="fill: none; fill-opacity:0; stroke-width: 2; stroke: #ffffff" x="640" y="80" width="220" height="38"/>
    <text font-size="12.7998" style="fill: #000000;text-anchor:middle;font-family:sans-serif;font-style:normal;font-weight:normal" x="750" y="102.9">
      <tspan x="750" y="102.9">ViewModel</tspan>
    </text>
  </g>
  <g>
    <line style="fill: none; fill-opacity:0; stroke-width: 2; stroke: #000000" x1="745" y1="180" x2="749.217" y2="127.705"/>
    <polygon style="fill: #000000" points="749.82,120.229 754,130.598 749.217,127.705 744.033,129.795 "/>
    <polygon style="fill: none; fill-opacity:0; stroke-width: 2; stroke: #000000" points="749.82,120.229 754,130.598 749.217,127.705 744.033,129.795 "/>
  </g>
  <g>
    <line style="fill: none; fill-opacity:0; stroke-width: 2; stroke: #000000" x1="750" y1="80" x2="750" y2="27.7361"/>
    <polygon style="fill: #000000" points="750,20.2361 755,30.2361 750,27.7361 745,30.2361 "/>
    <polygon style="fill: none; fill-opacity:0; stroke-width: 2; stroke: #000000" points="750,20.2361 755,30.2361 750,27.7361 745,30.2361 "/>
  </g>
  <g>
    <line style="fill: none; fill-opacity:0; stroke-width: 2; stroke: #000000" x1="450" y1="479.006" x2="450" y2="430.736"/>
    <polygon style="fill: #000000" points="450,423.236 455,433.236 450,430.736 445,433.236 "/>
    <polygon style="fill: none; fill-opacity:0; stroke-width: 2; stroke: #000000" points="450,423.236 455,433.236 450,430.736 445,433.236 "/>
  </g>
</svg>
